<svg id="Layer_1" data-name="Layer 1" xmlns="http://www.w3.org/2000/svg" viewBox="0 0 291.61 82.05"><defs><style>.cls-1{fill:#ffffff;}</style></defs><path class="cls-1" d="M452,455.15h-1.49v-9.61h-6.25v9.61h-1.49v-11H452Z" transform="translate(-442.78 -375.53)"/><path class="cls-1" d="M458.34,452.6l-1.11,2.55h-1.54l4.84-11h1.62l4.82,11h-1.59l-1.11-2.55Zm5.33-1.38-2.36-5.45-2.37,5.45Z" transform="translate(-442.78 -375.53)"/><path class="cls-1" d="M478.55,445a3.43,3.43,0,0,1,0,4.76,3.74,3.74,0,0,1-2.55.85h-3.86v4.54h-1.49v-11H476A3.69,3.69,0,0,1,478.55,445Zm-1.08,3.74a2,2,0,0,0,0-2.72,2.2,2.2,0,0,0-1.47-.48h-3.86v3.68H476A2.2,2.2,0,0,0,477.47,448.74Z" transform="translate(-442.78 -375.53)"/><path class="cls-1" d="M482.86,444.15H492v1.39h-3.81v9.61h-1.49v-9.61h-3.81Z" transform="translate(-442.78 -375.53)"/><path class="cls-1" d="M505.47,455.15H504v-4.81h-6.43v4.81h-1.49v-11h1.49V449H504v-4.8h1.49Z" transform="translate(-442.78 -375.53)"/><path class="cls-1" d="M518,445.54h-6V449h5.85v1.39h-5.85v3.42h6v1.39h-7.45v-11H518Zm-6-2.72v-1.65h1.59v1.65Zm3,0v-1.65h1.59v1.65Z" transform="translate(-442.78 -375.53)"/><path class="cls-1" d="M530.67,445a3.4,3.4,0,0,1,0,4.76,3.72,3.72,0,0,1-2.55.85h-3.86v4.54h-1.49v-11h5.35A3.67,3.67,0,0,1,530.67,445Zm-1.08,3.74a2,2,0,0,0,0-2.72,2.17,2.17,0,0,0-1.47-.48h-3.86v3.68h3.86A2.17,2.17,0,0,0,529.59,448.74Z" transform="translate(-442.78 -375.53)"/><path class="cls-1" d="M543.55,449.48a3.41,3.41,0,0,1,0,4.74,3.86,3.86,0,0,1-2.81.93H536v-11h1.49v4.4h3.27A3.86,3.86,0,0,1,543.55,449.48Zm-1.14,3.79a2,2,0,0,0,0-2.84,2.59,2.59,0,0,0-1.67-.48h-3.27v3.81h3.27A2.6,2.6,0,0,0,542.41,453.27Zm5.13-9.12v11h-1.49v-11Z" transform="translate(-442.78 -375.53)"/><path class="cls-1" d="M552.21,455.15v-1.84h1.84v1.84Z" transform="translate(-442.78 -375.53)"/><path class="cls-1" d="M574.21,455.15h-1.49v-4.81h-6.43v4.81H564.8v-11h1.49V449h6.43v-4.8h1.49Z" transform="translate(-442.78 -375.53)"/><path class="cls-1" d="M586.75,445.54h-6V449h5.85v1.39h-5.85v3.42h6v1.39H579.3v-11h7.45Z" transform="translate(-442.78 -375.53)"/><path class="cls-1" d="M602,457.58h-1.49v-2.43h-8.6v2.43H590.4v-3.82h1.08c.86-.82,1.29-2.37,1.29-4.66v-5h7.72v9.61H602Zm-7.72-12v3.54a9.09,9.09,0,0,1-1,4.68H599v-8.22Z" transform="translate(-442.78 -375.53)"/><path class="cls-1" d="M606.24,455.15h5.16a3.76,3.76,0,0,0,2.37-.77,2.76,2.76,0,0,0,1-2.33,2.7,2.7,0,0,0-1.29-2.4,3,3,0,0,0,.29-4.73,3.71,3.71,0,0,0-2.37-.77h-5.16Zm6.52-4.37a1.81,1.81,0,0,1,0,2.54,2,2,0,0,1-1.37.44h-3.66v-3.42h3.66A2,2,0,0,1,612.76,450.78Zm0-4.8a1.8,1.8,0,0,1,0,2.53,2,2,0,0,1-1.37.44h-3.66v-3.41h3.66A2,2,0,0,1,612.76,446Z" transform="translate(-442.78 -375.53)"/><path class="cls-1" d="M619.36,444.15h1.49v8.93l6.38-8.93h1.67v11h-1.49v-8.93L621,455.15h-1.67Z" transform="translate(-442.78 -375.53)"/><path class="cls-1" d="M632.75,455.15l5.4-5.5-5.4-5.5h1.93l4.73,4.77v-4.77h1.49v4.77l4.72-4.77h1.94l-5.4,5.5,5.4,5.5h-1.94l-4.72-4.77v4.77h-1.49v-4.77l-4.73,4.77Z" transform="translate(-442.78 -375.53)"/><path class="cls-1" d="M651.4,444.15h1.49v8.93l6.38-8.93h1.67v11h-1.49v-8.93l-6.38,8.93H651.4Z" transform="translate(-442.78 -375.53)"/><path class="cls-1" d="M677.2,444.15h1.85v11h-1.49V446.6l-4.17,8.55H671.7l-4.18-8.55v8.55H666v-11h1.89l4.64,9.51Z" transform="translate(-442.78 -375.53)"/><path class="cls-1" d="M685.1,445.57a5.76,5.76,0,0,1,8,0,5.94,5.94,0,0,1,0,8.15,5.76,5.76,0,0,1-8,0,5.94,5.94,0,0,1,0-8.15Zm7,1a4.16,4.16,0,0,0-5.93,0,4.61,4.61,0,0,0,0,6.18,4.19,4.19,0,0,0,5.93,0,4.61,4.61,0,0,0,0-6.18Z" transform="translate(-442.78 -375.53)"/><path class="cls-1" d="M704.19,445.32a4,4,0,0,0-3,1.24,4.61,4.61,0,0,0,0,6.18,4,4,0,0,0,3,1.23,3.62,3.62,0,0,0,3.1-1.56H709a5.1,5.1,0,0,1-4.78,2.95,5.42,5.42,0,0,1-4-1.64,5.94,5.94,0,0,1,0-8.15,5.46,5.46,0,0,1,4-1.64,5.14,5.14,0,0,1,4.78,2.95h-1.68A3.62,3.62,0,0,0,704.19,445.32Z" transform="translate(-442.78 -375.53)"/><path class="cls-1" d="M712.32,444.15h9.11v1.39h-3.81v9.61h-1.49v-9.61h-3.81Z" transform="translate(-442.78 -375.53)"/><path class="cls-1" d="M733.44,449.48a3.43,3.43,0,0,1,0,4.74,3.87,3.87,0,0,1-2.81.93h-5.1v-11H727v4.4h3.61A3.87,3.87,0,0,1,733.44,449.48Zm-1.15,3.79a2,2,0,0,0,0-2.84,2.58,2.58,0,0,0-1.66-.48H727v3.81h3.61A2.58,2.58,0,0,0,732.29,453.27Z" transform="translate(-442.78 -375.53)"/><path class="cls-1" d="M461.51,406.24a7.65,7.65,0,0,0-3.48-1.43,7.15,7.15,0,0,0,3.15-1.45,6.9,6.9,0,0,0,2-2.75,9.8,9.8,0,0,0,.7-3.83v-4.86a10,10,0,0,0-1.17-5,7.56,7.56,0,0,0-3.43-3.15,12.48,12.48,0,0,0-5.42-1.07h-11v46h11.85a11.68,11.68,0,0,0,5.3-1.1,7.6,7.6,0,0,0,3.33-3.21,10.6,10.6,0,0,0,1.14-5.11v-6.07a10.15,10.15,0,0,0-.76-4.09A7,7,0,0,0,461.51,406.24ZM454,388.41a3.94,3.94,0,0,1,2.88,1,3.78,3.78,0,0,1,1,2.84v4.68a5.75,5.75,0,0,1-1,3.67,3.59,3.59,0,0,1-2.94,1.3h-5v-13.5Zm4.52,30.69a3.66,3.66,0,0,1-1.12,2.88,4.51,4.51,0,0,1-3.14,1h-5.35V407.6h5a4.46,4.46,0,0,1,2.42.64,4.32,4.32,0,0,1,1.59,1.89,7,7,0,0,1,.57,3Z" transform="translate(-442.78 -375.53)"/><polygon class="cls-1" points="34.96 38.21 34.96 7.19 29.17 7.19 29.17 53.12 34.17 53.12 45.96 22.32 45.96 53.12 51.75 53.12 51.75 7.19 46.81 7.19 34.96 38.21"/><polygon class="cls-1" points="75.19 27.67 66.05 27.67 66.05 7.19 60.01 7.19 60.01 53.15 66.05 53.15 66.05 33.36 75.19 33.36 75.19 53.15 81.19 53.15 81.19 7.19 75.19 7.19 75.19 27.67"/><polygon class="cls-1" points="95.25 38.21 95.25 7.19 89.46 7.19 89.46 53.12 94.45 53.12 106.25 22.32 106.25 53.12 112.03 53.12 112.03 7.19 107.1 7.19 95.25 38.21"/><path class="cls-1" d="M584.45,382H566.24v-6.48h-6V387.7h1.64a3.55,3.55,0,0,1,3.25,2.26,14.27,14.27,0,0,1,1.15,6.37V428.7h19.6v-41h4.58V375.53h-6Zm-12.17,41V395.76a16.08,16.08,0,0,0-1.16-6.4,10.16,10.16,0,0,0-.92-1.66h9.67V423Z" transform="translate(-442.78 -375.53)"/><polygon class="cls-1" points="159.51 38.21 159.51 7.19 153.73 7.19 153.73 53.12 158.72 53.12 170.52 22.32 170.52 53.12 176.3 53.12 176.3 7.19 171.37 7.19 159.51 38.21"/><polygon class="cls-1" points="207.9 7.19 201.7 7.19 195.21 27.48 190.57 27.48 190.57 7.19 184.56 7.19 184.56 53.15 190.57 53.15 190.57 33.17 194.85 33.17 203.41 53.15 209.82 53.15 200.09 29.85 207.9 7.19"/><polygon class="cls-1" points="211.45 12.88 219.61 12.88 219.61 53.15 225.62 53.15 225.62 12.88 233.77 12.88 233.77 7.19 211.45 7.19 211.45 12.88"/><path class="cls-1" d="M699.23,383.59a14.75,14.75,0,0,0-12.33,0,9,9,0,0,0-3.9,3.93,13.43,13.43,0,0,0-1.34,6.26v23.84a13.36,13.36,0,0,0,1.34,6.23,9.13,9.13,0,0,0,3.9,3.95,14.65,14.65,0,0,0,12.33,0,9.15,9.15,0,0,0,3.91-3.95,13.48,13.48,0,0,0,1.34-6.23V393.78a13.55,13.55,0,0,0-1.34-6.26A9,9,0,0,0,699.23,383.59Zm-.76,34.22a6.45,6.45,0,0,1-.63,3,4.31,4.31,0,0,1-1.85,1.88,6.88,6.88,0,0,1-5.84,0,4.2,4.2,0,0,1-1.85-1.88,6.32,6.32,0,0,1-.64-3V393.59a6.32,6.32,0,0,1,.64-3,4.2,4.2,0,0,1,1.85-1.88,6.88,6.88,0,0,1,5.84,0,4.31,4.31,0,0,1,1.85,1.88,6.45,6.45,0,0,1,.63,3Z" transform="translate(-442.78 -375.53)"/><path class="cls-1" d="M733.61,409.1a7,7,0,0,0-2.21-2.86,7.65,7.65,0,0,0-3.48-1.43,7.15,7.15,0,0,0,3.15-1.45,6.92,6.92,0,0,0,2-2.75,10,10,0,0,0,.69-3.83v-4.86a10,10,0,0,0-1.17-5,7.56,7.56,0,0,0-3.43-3.15,12.45,12.45,0,0,0-5.42-1.07h-11v46H724.6a11.66,11.66,0,0,0,5.3-1.1,7.62,7.62,0,0,0,3.34-3.21,10.72,10.72,0,0,0,1.13-5.11v-6.07A10.15,10.15,0,0,0,733.61,409.1Zm-9.76-20.69a3.93,3.93,0,0,1,2.87,1,3.75,3.75,0,0,1,1,2.84v4.68a5.69,5.69,0,0,1-1,3.67,3.57,3.57,0,0,1-2.94,1.3h-5v-13.5Zm4.52,30.69a3.66,3.66,0,0,1-1.13,2.88,4.51,4.51,0,0,1-3.14,1h-5.35V407.6h5a4.44,4.44,0,0,1,2.42.64,4.34,4.34,0,0,1,1.6,1.89,7.18,7.18,0,0,1,.57,3Z" transform="translate(-442.78 -375.53)"/></svg>